<svg xmlns="http://www.w3.org/2000/svg" viewBox="0 0 501.986 265.603">
<path fill="currentColor" stroke="currentColor" d="M177.208,234.97a2.065,2.065,0,0,0,.32,1.193,1.894,1.894,0,0,0,1.74.651c1.177-.08,1.915-.689,1.974-1.611a1.08,1.08,0,0,0-.569-1.109,10.4,10.4,0,0,0-2.249-.52,4.964,4.964,0,0,1-2.4-.787,3.313,3.313,0,0,1-1.283-3.062c.161-2.536,2.157-4.265,5.168-4.471,1.941-.133,3.384.408,4.131,1.587a4.223,4.223,0,0,1,.638,1.925l-3.264.6c-.115-1.059-.638-1.465-1.8-1.386a1.682,1.682,0,0,0-1.7,1.413.961.961,0,0,0,.652,1,7.824,7.824,0,0,0,2.073.4,6.19,6.19,0,0,1,2.417.77,3.267,3.267,0,0,1,1.439,3.249,4.867,4.867,0,0,1-1.263,3.1,6.045,6.045,0,0,1-4.107,1.676,6.3,6.3,0,0,1-3.358-.573,3.177,3.177,0,0,1-1.516-2,6.081,6.081,0,0,1-.241-1.508Zm17.9,3.335a18.272,18.272,0,0,0-2.514.057l-4.815.331c-1.162.079-1.591.125-2.249.2a16.979,16.979,0,0,0,.273-2.414l.569-9a18.694,18.694,0,0,0,.031-2.4c.624-.01,1.051-.022,2.243-.1l4.876-.334a17.986,17.986,0,0,0,2.283-.272l-.194,3.081a17.314,17.314,0,0,0-2.269.041l-3.975.273-.153,2.421,3.3-.226a17.5,17.5,0,0,0,2.3-.272l-.193,3.047a17.82,17.82,0,0,0-2.285.043l-3.3.227-.175,2.767,3.944-.27a19.578,19.578,0,0,0,2.5-.286Zm9.954-.8a13.231,13.231,0,0,0-.254-1.755l-.324-1.372-4.356.3-.5,1.429a10.942,10.942,0,0,0-.494,1.8l-3.577.244a19.485,19.485,0,0,0,.861-2.059l3.928-10.146a11.7,11.7,0,0,0,.6-1.813l3.989-.274a12.613,12.613,0,0,0,.408,1.745l2.688,9.692c.234.853.437,1.513.606,1.96Zm-2.292-10.688-1.734,5.04,2.875-.2Zm9.725,5.732a2.055,2.055,0,0,0,.32,1.193,1.889,1.889,0,0,0,1.739.652c1.178-.081,1.915-.69,1.974-1.612a1.079,1.079,0,0,0-.568-1.109,10.478,10.478,0,0,0-2.25-.519,4.955,4.955,0,0,1-2.4-.788,3.312,3.312,0,0,1-1.283-3.062c.161-2.535,2.157-4.264,5.169-4.471,1.94-.133,3.384.408,4.131,1.587a4.232,4.232,0,0,1,.638,1.926l-3.265.6c-.115-1.058-.638-1.465-1.8-1.385a1.682,1.682,0,0,0-1.7,1.413.961.961,0,0,0,.652,1,7.72,7.72,0,0,0,2.074.4,6.194,6.194,0,0,1,2.417.771,3.267,3.267,0,0,1,1.438,3.249,4.872,4.872,0,0,1-1.262,3.1,6.059,6.059,0,0,1-4.108,1.676,6.3,6.3,0,0,1-3.357-.573,3.179,3.179,0,0,1-1.516-2,5.979,5.979,0,0,1-.241-1.508Zm20.71-3.862c-.276,4.35-2.917,7.4-6.632,7.656-3.744.256-5.981-2.4-5.7-6.762.275-4.35,2.866-7.3,6.626-7.557S233.475,224.374,233.2,228.691Zm-3.181.251c.169-2.669-.859-4.207-2.709-4.08-1.865.127-3.114,1.837-3.282,4.49-.17,2.686.871,4.272,2.735,4.144S229.85,231.645,230.021,228.942Zm11.739-.886a18.96,18.96,0,0,1,.977,1.886c-.014-.754,0-1.511.062-2.434l.239-3.756a19.207,19.207,0,0,0,.036-2.5l3.256-.224a19.545,19.545,0,0,0-.281,2.514L245.5,232.3a21.075,21.075,0,0,0-.032,2.446l-3.348.23a15.171,15.171,0,0,0-1.015-2.015l-2.536-4.4a17.346,17.346,0,0,1-.973-1.951c.03.735,0,1.639-.047,2.447l-.234,3.69a19.4,19.4,0,0,0-.04,2.563l-3.256.223a18.933,18.933,0,0,0,.285-2.595l.549-8.667a19.674,19.674,0,0,0,.034-2.447l3.316-.228a9.487,9.487,0,0,0,.956,1.985Zm9.871.538c.74-.871.74-.871,1.583-1.913l3.581-4.412a19.9,19.9,0,0,0,1.545-2.059l3.133-.215a26.511,26.511,0,0,0-.3,2.745l-.338,5.355.443-.03a10.632,10.632,0,0,0,1.52-.236l-.189,3a10.9,10.9,0,0,0-1.49,0l-.459.031-.053.825a12.056,12.056,0,0,0,0,2.017l-3.149.216a16,16,0,0,0,.253-2.067l.051-.809-4.326.3c-.993.068-1.422.114-1.991.2Zm6.437-2.181c.048-.74.136-1.649.243-2.379-.336.483-.586.829-1.033,1.418l-2.418,3.085,3.088-.212Zm19.768,6.227a18.255,18.255,0,0,0-2.516.056l-4.813.331c-1.163.08-1.591.125-2.25.2a17.1,17.1,0,0,0,.274-2.414l.568-9a18.514,18.514,0,0,0,.031-2.4c.625-.009,1.051-.021,2.244-.1l4.875-.334a18.027,18.027,0,0,0,2.284-.272l-.194,3.081a17.52,17.52,0,0,0-2.271.041l-3.974.273-.153,2.421,3.3-.226a17.313,17.313,0,0,0,2.3-.272l-.194,3.047a17.807,17.807,0,0,0-2.284.043l-3.3.227-.174,2.767,3.943-.27a19.4,19.4,0,0,0,2.5-.286Zm6.86-4.572c.094.436.094.436.22,1.117.228-.738.265-.838.361-1.157L288,219.951a10.629,10.629,0,0,0,.463-1.8l3.591-.246c-.245.508-.407.9-.86,2.06L287.322,230.1a17.37,17.37,0,0,0-.6,1.812l-3.972.273a12.734,12.734,0,0,0-.377-1.746l-2.628-9.7c-.246-.934-.372-1.337-.592-1.962l3.577-.244a11.639,11.639,0,0,0,.254,1.755Zm16.841,2.948a18.284,18.284,0,0,0-2.515.057l-4.814.33c-1.162.08-1.591.125-2.25.2a16.953,16.953,0,0,0,.274-2.414l.568-9a18.514,18.514,0,0,0,.031-2.4c.625-.01,1.051-.022,2.244-.1l4.875-.334a17.845,17.845,0,0,0,2.284-.271l-.194,3.081a17.346,17.346,0,0,0-2.271.041l-3.973.273-.154,2.421,3.3-.226a17.631,17.631,0,0,0,2.3-.272l-.194,3.047a17.809,17.809,0,0,0-2.284.043l-3.3.227-.175,2.767,3.943-.27a19.556,19.556,0,0,0,2.5-.286Zm9.007-.732a15.556,15.556,0,0,0-.587-2.518c-.4-1.4-.558-1.767-.917-2.1a1.419,1.419,0,0,0-1.164-.363l-1.559.107-.171,2.7a18.621,18.621,0,0,0-.035,2.479l-3.286.225a18,18,0,0,0,.278-2.48l.561-8.864a18.8,18.8,0,0,0,.031-2.415c.671-.013,1.234-.034,2.274-.106l3.974-.272c2.476-.169,3.825,1.116,3.676,3.489a4.237,4.237,0,0,1-1.074,2.764,3.936,3.936,0,0,1-1.5.924c.762.21,1.09.564,1.506,1.7.195.511.374,1.056.949,2.79.138.449.3.849.623,1.695Zm-1.664-7.858a1.615,1.615,0,0,0,1.548-1.632c.059-.922-.4-1.367-1.347-1.3l-2.4.165-.185,2.934ZM138.182,79.378l-26.546,57.64,15.594-1.064,4.77-11.1h0l23.919-1.542,3.934,10.372,16.315-1.134-22.913-54.2Zm-.949,33.305,7.785-18.11,6.5,17.138ZM39.2,86.238l-.693,20.879-21.75,1.626.7-20.974L1.857,88.833,0,144.795l15.594-1.064.72-21.711,21.746-1.489L37.341,142.2l15.594-1.064,1.857-55.962Zm70.091,7.429.316-12.3L81.736,83.243,66.142,84.308,64.285,140.27l15.594-1.064,29.127-1.986.308-12.031-29.037,2.018.354-10.674h0l24.776-1.686.3-11.671-24.687,1.679.306-9.246ZM278.437,82l.315-12.3-27.869,1.879-15.594,1.064L233.432,128.6l15.594-1.064,29.127-1.986.308-12.03-29.037,2.018.354-10.674h0l24.776-1.686.3-11.671-24.687,1.679.307-9.245Zm117.888-8.192.315-12.3-27.869,1.879-15.594,1.064-1.857,55.963,15.594-1.065,29.127-1.985.308-12.031-29.037,2.018.354-10.674h0l24.776-1.685.3-11.672-24.687,1.68.306-9.246ZM473.012,89.35h0l24.776-1.685.3-11.672L473.4,77.673l.307-9.246,27.964-1.943.315-12.3L474.117,56.06l-15.594,1.064-1.857,55.963,15.594-1.064,29.127-1.986.308-12.031-29.037,2.018ZM199.376,111.416,185.333,76.109,168.29,77.294l22.25,54.268,15.292-1.063,26.014-57.622-15.54,1.08Zm126.5-14.937L301.8,68.015l-13.041.907-1.852,56.153,15.623-1.3.979-29.7,23.675,27.99,12.9-.9,1.844-55.942-15.056,1.046ZM427.859,80.7c-6.43-.794-8.811-2.26-8.811-5.4s5.477-5.081,11.272-5.081S443.7,73.553,443.7,73.553l5.285-12.091s-5.569-3.622-19.462-3.622-26.117,8.812-26.117,19.687,7.7,13.893,16.433,15.322,14.686,2.143,14.686,5.715-4.684,5.478-10.162,5.478a42.674,42.674,0,0,1-17.4-4.1L401.288,111.6c6.646,3.56,13.711,4.592,22.92,4.592s25.958-5.875,25.958-20.879C450.166,82.37,434.29,81.5,427.859,80.7ZM172.668,168.986c-5.992-.253-10.634-1.012-10.634-3.291s5.064-3.46,8.1-3.46a28.869,28.869,0,0,1,11.056,2.447l4.726-10.3c-2.7-.76-5.148-2.7-16.626-2.7-9.79,0-21.606,6.245-21.606,16.2,0,8.609,6.668,11.563,14.1,11.563s10.8,1.266,10.8,2.616-.928,3.8-7.933,3.8a39.665,39.665,0,0,1-13.588-2.785s-2.532,4.641-5.232,10.3c4.3,1.941,9.2,3.123,20.508,3.123s20.677-8.187,20.677-16.373S178.66,169.24,172.668,168.986Zm47,10.722a8.34,8.34,0,0,1-4.716,1.854c-2.532,0-4.131-.92-4.513-5.144s.457-13.866.457-13.866l10.15-.709.372-11.279-10.15.709.373-11.327-14.926,1.042-.374,11.327-6.214.434-.372,11.28,6.214-.434s-.26,7.9-.506,15.342c-.336,10.218,5.985,14.609,15.691,14.609,8.271,0,11.935-3.726,11.935-3.726Zm29.457-7.095-9.847-24.975-15.621,1.091,17.19,42.786s-2.555,3.862-6.247,3.862a14.665,14.665,0,0,1-6.836-1.929l-5.273,10.879s3.432,2.749,11.542,2.749,15.066-2.7,21.67-17.78l19.324-44.125-14.322,1Zm28.535,15.5,14.912-1.042,1.947-59.053-14.912,1.041Zm48.392-47.51c-16.354,0-25.324,13.972-25.324,25.483s9.209,19.335,20.878,19.29c15.4-.059,20.038-6.218,22.006-8.427l-7.2-7.485a16.648,16.648,0,0,1-11.071,4.56c-5.634,0-8.63-3-9.5-6.522l31.247-2.007C348.556,150.187,341.054,140.6,326.051,140.6Zm-10.14,19.062c.775-4.3,3.047-7.976,9.028-8.107,8.2-.178,8.5,6.98,8.5,6.98ZM166.038,41.777c26.495-24.366,60.13-37.785,94.708-37.785,33.41,0,63.828,12.533,86.026,35.364L351.93,39l-.016-.018C328.783,13.844,296.406,0,260.746,0c-35.582,0-70.176,13.793-97.41,38.839a152.625,152.625,0,0,0-13.465,14.076l5.611-.386A148.73,148.73,0,0,1,166.038,41.777Zm164.284,182.05c-26.5,24.366-60.13,37.785-94.709,37.785-33.379,0-63.771-12.512-85.964-35.3l-5.162.355c23.128,25.111,55.488,38.939,91.126,38.939,35.583,0,70.177-13.793,97.411-38.838a152.518,152.518,0,0,0,13.406-14.007l-5.614.386A148.983,148.983,0,0,1,330.322,223.827Zm66.065,7.762a8.507,8.507,0,0,1-7.573-8.025q-.6-11.455-.6-23.061t.6-23.061a8.507,8.507,0,0,1,7.573-8.025,443.893,443.893,0,0,1,89.511,0,8.507,8.507,0,0,1,7.573,8.025q.6,11.456.6,23.061t-.6,23.061a8.507,8.507,0,0,1-7.573,8.025,443.3,443.3,0,0,1-44.756,2.262A443.292,443.292,0,0,1,396.387,231.589Zm15.65-25.82a4.83,4.83,0,0,0-3.4,1.281,4.389,4.389,0,0,0-1.385,3.381,4.572,4.572,0,0,0,1.385,3.464,5.034,5.034,0,0,0,6.805,0,4.569,4.569,0,0,0,1.386-3.464,4.386,4.386,0,0,0-1.386-3.381A4.826,4.826,0,0,0,412.037,205.769Zm5.25-13.734h9.03v22.806h8.315V192.035h8.989V185.44H417.287Zm53.55-6.595-8.164,19.177-8.006-19.177H445.72l12.558,29.4h8.19l12.6-29.4Z"/></svg>